<svg id="Layer_1" data-name="Layer 1" xmlns="http://www.w3.org/2000/svg" viewBox="0 0 121.94 103.97"><defs><style>.cls-1{fill:#ff5354;}.cls-2{fill:#fff3d2;}</style></defs><path class="cls-1" d="M69.38,73.63q-12.43,0-24.91.4.14,4.74.4,9.41t.67,9.35L24.23,95.67q.54-5.22.87-10.36T25.7,75c-3.29.23-6.54.47-9.75.74l-9.61.8V57.07c3.2-.09,6.41-.14,9.61-.14s6.41-.13,9.62-.26c-.14-2.9-.31-5.77-.54-8.62s-.44-5.67-.8-8.48H45.54q-.34,4.14-.61,8.21T44.6,56q6.21-.33,12.35-.74T69.38,54.2Zm23.17,41.73q1.2-13.89,1.93-27.58t.74-27.57c0-4.46-.09-8.86-.27-13.23s-.31-8.74-.53-13.15l-19.17-.4v-15q11.82-.13,23.37-.8t23.44-1.94q-.39,8.55-.53,17t-.13,17q0,16.5.66,32.79T124,115.36Z" transform="translate(-2.06 -11.39)"/><path class="cls-2" d="M65.1,69.35q-12.42,0-24.91.41c.09,3.16.23,6.29.4,9.41s.4,6.23.67,9.35L20,91.39c.36-3.47.64-6.92.87-10.35s.46-6.88.6-10.35c-3.3.22-6.55.47-9.75.73l-9.62.81V52.79c3.21-.09,6.41-.13,9.62-.13s6.41-.13,9.61-.27q-.2-4.34-.53-8.61c-.18-2.85-.44-5.68-.8-8.48h21.3q-.33,4.14-.6,8.21c-.13,2.72-.24,5.45-.33,8.21q6.21-.33,12.35-.73T65.1,49.92Zm23.17,41.74q1.2-13.89,1.94-27.58t.73-27.58q0-6.68-.26-13.22c-.14-4.36-.31-8.75-.54-13.16L71,29.15v-15q11.82-.14,23.37-.8t23.44-1.94q-.41,8.55-.53,17t-.14,17q0,16.48.67,32.79t1.94,32.85Z" transform="translate(-2.06 -11.39)"/></svg>