<svg id="Layer_1" data-name="Layer 1" xmlns="http://www.w3.org/2000/svg" viewBox="0 0 235 235"><defs><style>.cls-1{opacity:0.8;}.cls-2{fill:#fff;}.cls-3{fill:#bc261a;}</style></defs><g class="cls-1"><circle class="cls-2" cx="117.5" cy="117.5" r="117.5"/></g><path class="cls-3" d="M161.93,111.07c.67-.62,1.06-1,1.44-1.35q16.51-16.56,33-33.11c2.46-2.46,5-2.81,7.64-1.08,1.8,1.18,2.33,3,2.33,5v93.59c0,3.72-1.58,6-4.79,6.28a10.36,10.36,0,0,1-4.11-1c-.57-.21-1-.86-1.45-1.32l-32.55-32.72c-.39-.4-.71-.87-1.06-1.3l-.39.13c0,.51-.06,1-.07,1.53,0,4.83.16,9.69-.18,14.49a24.8,24.8,0,0,1-23.62,23.15c-.65,0-1.31.05-2,.05q-29.84,0-59.7,0c-10.9,0-18.68-5.16-23.52-14.86a23.77,23.77,0,0,1-2.19-11q0-23.06,0-46.11c0-4.94,0-9.88,0-14.81A24.9,24.9,0,0,1,67.74,73a27.44,27.44,0,0,1,8.35-1.3c20.16-.1,40.31,0,60.46-.09,13.7-.07,23.71,10.47,24.95,21,.62,5.38.31,10.87.43,16.31v2.08Z" transform="translate(-10 -10)"/></svg>