<svg id="Layer_1" data-name="Layer 1" xmlns="http://www.w3.org/2000/svg" viewBox="0 0 237 237"><defs><style>.cls-1{fill:#fff;}.cls-2{fill:#d4d2d2;}</style></defs><circle class="cls-1" cx="118.5" cy="118.5" r="118.5"/><path class="cls-2" d="M163.23,111.93c.67-.62,1.06-1,1.45-1.36Q181.33,93.88,198,77.18c2.48-2.49,5-2.84,7.7-1.09a5.48,5.48,0,0,1,2.35,5v94.39c0,3.75-1.59,6-4.83,6.33a10.43,10.43,0,0,1-4.15-1c-.57-.21-1-.86-1.46-1.33l-32.82-33a14.91,14.91,0,0,1-1.07-1.31l-.39.13c0,.52-.07,1-.07,1.55-.05,4.87.15,9.77-.19,14.61a25,25,0,0,1-23.82,23.34c-.66,0-1.32.06-2,.06q-30.11,0-60.21,0c-11,0-18.85-5.21-23.73-15a24.06,24.06,0,0,1-2.2-11.06q0-23.25,0-46.5c0-5-.05-10,0-14.94A25.06,25.06,0,0,1,68.23,73.55a27.66,27.66,0,0,1,8.43-1.32c20.32-.1,40.65,0,61-.08,13.81-.07,23.91,10.55,25.15,21.22.64,5.43.33,11,.44,16.45,0,.59,0,1.17,0,2.1Z" transform="translate(-10 -10)"/></svg>