<svg id="Layer_1" data-name="Layer 1" xmlns="http://www.w3.org/2000/svg" xmlns:xlink="http://www.w3.org/1999/xlink" viewBox="0 0 237 237"><defs><style>.cls-1{fill:none;}.cls-2{fill:#fff;}.cls-3{clip-path:url(#clip-path);}.cls-4{fill:#d4d2d2;}</style><clipPath id="clip-path" transform="translate(-10 -9.5)"><rect class="cls-1" x="58.45" y="66.38" width="137.99" height="117.97"/></clipPath></defs><circle class="cls-2" cx="118.5" cy="118.5" r="118.5"/><g class="cls-3"><path class="cls-4" d="M107.73,66.38a9.87,9.87,0,0,0-9.85,9.83V86H68.31a9.88,9.88,0,0,0-9.86,9.83v78.65a9.87,9.87,0,0,0,9.86,9.83H186.58a9.87,9.87,0,0,0,9.86-9.83V95.87A9.88,9.88,0,0,0,186.58,86H157V76.21a9.87,9.87,0,0,0-9.85-9.83Zm19.72,29.49A39.33,39.33,0,1,1,88,135.2,39.49,39.49,0,0,1,127.45,95.87Zm0,19.67a19.66,19.66,0,1,0,19.71,19.66A19.74,19.74,0,0,0,127.45,115.54Z" transform="translate(-10 -9.5)"/></g></svg>